PathFileType	4	(X/Y/Z)	C:/Users/opensim2020/Desktop/walking_exp_matlab/subject06_walking15_straight_04.trc																																																																																																																																											
DataRate	CameraRate	NumFrames	NumMarkers	Units	OrigDataRate	OrigDataStartFrame	OrigNumFrames																																																																																																																																							
100	100	9	47	mm	100	2999	157																																																																																																																																							
Frame#	Time	LFHD			RFHD			LBHD			RBHD			C7			T10			CLAV			STRN			RBAK			LSHO			LUPA			LELB			LFRM			LWRA			LWRB			LFIN			RSHO			RUPA			RELB			RFRM			RWRA			RWRB			RFIN			LASI			RASI			LPSI			RPSI			LTHI			LKNE			LTIB			LANK			LHEE			LTOE			RTHI			RKNE			RTIB			RANK			RHEE			RTOE			*39			*40			*41			*42			*43			*44			*45			*46		
		X1	Y1	Z1	X2	Y2	Z2	X3	Y3	Z3	X4	Y4	Z4	X5	Y5	Z5	X6	Y6	Z6	X7	Y7	Z7	X8	Y8	Z8	X9	Y9	Z9	X10	Y10	Z10	X11	Y11	Z11	X12	Y12	Z12	X13	Y13	Z13	X14	Y14	Z14	X15	Y15	Z15	X16	Y16	Z16	X17	Y17	Z17	X18	Y18	Z18	X19	Y19	Z19	X20	Y20	Z20	X21	Y21	Z21	X22	Y22	Z22	X23	Y23	Z23	X24	Y24	Z24	X25	Y25	Z25	X26	Y26	Z26	X27	Y27	Z27	X28	Y28	Z28	X29	Y29	Z29	X30	Y30	Z30	X31	Y31	Z31	X32	Y32	Z32	X33	Y33	Z33	X34	Y34	Z34	X35	Y35	Z35	X36	Y36	Z36	X37	Y37	Z37	X38	Y38	Z38	X39	Y39	Z39	X40	Y40	Z40	X41	Y41	Z41	X42	Y42	Z42	X43	Y43	Z43	X44	Y44	Z44	X45	Y45	Z45	X46	Y46	Z46	X47	Y47	Z47
																																																																																																																																														
138	1.37	432.59125	1642.14636	925.48175	459.09097	1635.55371	1055.05249	302.57382	1586.17773	954.00464	330.47702	1585.22705	1080.94849	312.16898	1430.0957	1001.70526	287.95352	1098.9054	1005.06573	424.02933	1354.82214	996.06067	466.53662	1181.80762	983.70679	244.14055	1255.36169	1075.28015	360.5202	1386.7605	837.82587	396.87259	1191.52881	757.8222	426.95731	1083.78796	739.69281	537.53766	983.79187	723.59265	655.08228	944.50342	775.8208	619.56354	897.62653	736.61865	706.42883	874.06171	739.64923	382.13828	1381.70825	1160.64246	310.74045	1193.74585	1245.39856	297.76144	1071.75623	1259.55334	288.78751	951.93488	1279.5719	319.95218	802.28754	1253.10852	265.52466	816.08795	1291.60754	284.64746	733.97858	1296.44312	461.35602	938.16516	889.32355	476.66672	954.07599	1110.39075	306.50769	967.323	930.28717	322.40237	975.49146	1098.6582	342.25824	628.90228	848.47101	303.07202	468.14505	871.7608	142.63683	263.93671	879.45148	44.83945	122.30846	921.19568	0.97287	130.26401	964.87457	157.97757	33.95597	928.51996	480.09665	628.57062	1185.05042	516.84283	511.16125	1157.96777	543.10815	248.61426	1167.47253	583.79248	64.94648	1129.23035	551.60278	39.41022	1082.27649	741.25507	42.16225	1122.7926	345.76529	1681.65784	1002.78241	NaN	NaN	NaN	NaN	NaN	NaN	NaN	NaN	NaN	NaN	NaN	NaN	NaN	NaN	NaN	NaN	NaN	NaN	NaN	NaN	NaN
139	1.38	442.38135	1643.22253	926.28986	469.42776	1636.98767	1055.70361	312.51495	1587.02917	955.4884	341.06467	1586.35242	1082.30859	323.30112	1431.08081	1002.66937	299.88748	1099.45618	1005.54791	435.01141	1356.17407	997.21265	478.14114	1183.35706	984.76373	255.48836	1255.60339	1077.17322	371.18274	1387.39246	838.76117	406.5162	1191.4613	759.43555	436.2048	1083.40222	741.49756	546.19092	982.81311	725.59778	663.56989	943.16962	777.69275	627.70587	896.34607	738.69006	714.46497	872.63696	741.57983	393.32541	1382.58606	1161.98962	323.1424	1194.12476	1246.89905	311.06186	1072.01465	1261.16138	303.1127	952.02203	1280.95288	335.35022	802.92578	1254.30225	280.94891	816.04553	1292.70508	300.79718	734.06494	1297.63696	473.48145	938.96228	890.23083	489.79025	955.69135	1111.00342	318.70596	967.6416	930.76874	334.54645	977.21564	1099.17969	356.54056	628.49042	849.91858	319.73019	467.20908	873.02228	152.97781	268.19131	880.93915	50.74228	129.33806	922.07782	8.17875	139.28308	965.72308	159.03842	34.2101	928.8479	491.81674	631.05353	1187.27527	527.86145	513.09668	1160.5033	551.16064	249.74847	1169.71326	585.80969	65.23801	1129.59131	552.5235	40.08509	1083.37354	742.74023	38.9033	1123.49011	355.80338	1682.71753	1003.83453	NaN	NaN	NaN	NaN	NaN	NaN	NaN	NaN	NaN	NaN	NaN	NaN	NaN	NaN	NaN	NaN	NaN	NaN	NaN	NaN	NaN
140	1.39	452.14111	1644.51892	926.99915	479.84845	1638.50818	1056.37268	322.59241	1588.00342	956.96466	351.76743	1587.67847	1083.75708	333.85858	1432.34204	1004.16772	311.6571	1100.38782	1006.0835	445.81848	1357.5863	998.33105	489.60257	1185.05725	985.68054	266.98346	1256.3905	1078.91565	382.03748	1388.51245	839.742	415.65054	1191.71155	761.46588	445.29733	1083.59338	743.50098	554.33203	981.99329	727.62646	671.46948	941.46185	779.53925	635.14539	894.83447	740.61963	721.73566	870.50848	743.39587	404.55246	1383.86035	1163.151	336.16974	1194.72498	1248.08203	324.93286	1072.56958	1262.61182	318.03433	952.46454	1282.23486	351.83527	803.83453	1255.07654	297.11807	816.26422	1293.81177	317.85724	734.47974	1298.44104	485.55234	940.008	891.39624	502.40573	957.86255	1111.51416	330.90985	968.22021	931.18329	346.36642	979.29291	1099.51538	371.69244	628.07233	851.28522	337.6153	466.32138	873.95563	164.23795	273.14612	882.17871	58.42182	137.52882	923.15485	17.42112	149.29828	967.53125	159.94545	34.53281	929.1286	503.3371	633.57336	1189.0835	539.64563	515.3255	1161.52759	557.06165	250.21396	1171.59778	587.07782	65.37666	1129.64624	553.15161	40.4496	1084.02393	743.89648	37.25381	1124.26196	365.93317	1683.95471	1004.9455	NaN	NaN	NaN	NaN	NaN	NaN	NaN	NaN	NaN	NaN	NaN	NaN	NaN	NaN	NaN	NaN	NaN	NaN	NaN	NaN	NaN
141	1.4	461.93326	1646.07813	927.80872	490.28241	1640.21814	1057.07605	332.38046	1589.51062	957.87628	362.42636	1589.0603	1085.06958	344.52515	1433.30432	1005.48102	323.06094	1101.7832	1006.52106	456.76715	1359.19214	999.32898	500.97144	1186.77954	986.46759	278.62708	1257.38562	1080.40991	392.7515	1389.96387	840.83624	425.07034	1192.61768	763.1817	454.24277	1084.30457	745.72211	562.02734	981.26617	729.7511	678.78925	939.45361	781.27246	641.77386	893.11432	742.6991	728.23688	867.9668	744.9519	415.7507	1385.41589	1164.11621	349.18665	1195.74304	1249.7417	339.09109	1073.41541	1263.94092	333.40454	953.22498	1283.4967	368.25424	804.96552	1256.01074	313.91739	816.71173	1294.99414	335.39752	735.28485	1299.40869	497.5416	941.1947	892.76868	514.39874	960.57312	1112.07751	343.0376	969.18982	931.54034	357.83087	981.5321	1099.67224	387.34198	627.67206	852.62152	356.70468	465.40158	874.50311	177.0183	278.51544	883.70435	67.73332	146.25169	924.68591	28.43567	159.82304	969.86761	160.93631	34.9844	929.78607	515.34491	636.39679	1189.99487	550.68805	517.19122	1161.86255	562.78333	250.96422	1172.76379	588.39679	65.72656	1130.03821	553.77783	40.88323	1084.87598	745.22565	36.11588	1123.60974	376.01398	1685.32458	1006.19598	NaN	NaN	NaN	NaN	NaN	NaN	NaN	NaN	NaN	NaN	NaN	NaN	NaN	NaN	NaN	NaN	NaN	NaN	NaN	NaN	NaN
142	1.41	471.70837	1647.74719	928.64917	500.57147	1641.97754	1057.67896	342.46216	1590.8468	959.43365	372.94949	1590.651	1086.2229	355.30658	1434.69324	1006.36389	334.24298	1103.41174	1007.19519	467.73822	1360.94543	1000.19305	512.28204	1188.58374	987.28131	290.14322	1258.68896	1081.67224	403.39447	1391.69287	841.90479	434.3938	1193.84753	764.98822	463.01379	1085.30359	748.07666	569.32965	980.69751	731.81342	685.54236	937.14984	782.92938	647.62805	891.28717	744.57922	733.6333	864.92432	746.4314	426.90195	1387.20789	1165.02234	362.51187	1196.80066	1250.92224	353.63644	1074.52563	1265.16589	349.24768	954.30597	1284.67932	385.56558	806.45667	1256.69958	331.11783	817.65649	1296.30078	353.42392	736.31708	1300.25049	509.17325	942.50958	894.4118	525.83783	963.65009	1112.91284	354.92072	970.33478	931.87286	369.02036	983.69952	1099.74329	403.55057	627.15356	853.84778	376.77069	464.4003	874.68073	191.67154	283.95322	885.12793	78.8173	155.17955	926.23444	41.60519	170.60927	972.61456	162.20001	35.72818	930.53833	527.52167	638.95825	1190.10437	560.69891	518.7804	1162.02771	569.05573	252.00725	1173.22876	590.15643	66.0607	1130.0603	554.1532	41.225	1085.43555	746.33557	35.17204	1122.37329	386.02176	1686.83862	1007.34515	NaN	NaN	NaN	NaN	NaN	NaN	NaN	NaN	NaN	NaN	NaN	NaN	NaN	NaN	NaN	NaN	NaN	NaN	NaN	NaN	NaN
143	1.42	481.55307	1649.46765	929.35327	510.99918	1643.61926	1058.3407	352.60413	1592.39746	960.97357	383.61102	1592.15002	1087.44763	366.30414	1435.49194	1008.07214	345.26785	1105.12769	1007.87585	478.57568	1362.62817	1000.95227	523.59009	1190.44653	988.08691	301.51636	1260.27454	1082.73853	413.90866	1393.61975	842.94092	443.81021	1195.35449	766.73175	471.67032	1086.64514	750.49683	576.10901	980.08984	733.93213	691.84473	934.58759	784.47723	652.73499	889.22601	746.51422	738.35956	860.97345	747.99402	438.09772	1389.13452	1165.75452	375.97662	1198.25232	1252.19434	368.38239	1075.80945	1266.21436	365.36539	955.60999	1285.77014	402.8978	808.21545	1257.64966	348.73126	818.8479	1297.6217	372.39493	737.80499	1301.18555	520.53143	943.9433	896.17938	536.87653	966.61804	1114.0437	366.4791	971.45868	932.28564	380.1044	985.73669	1099.93982	420.15903	626.6955	854.83795	397.53537	463.33032	875.02728	207.9906	289.18631	886.52631	91.48367	163.9198	927.53741	56.43119	181.27898	975.13477	165.08771	37.67358	931.03693	539.01611	641.00635	1190.13135	569.64398	519.9245	1162.38574	574.48029	252.68736	1173.16626	591.05347	66.25198	1129.55334	554.45618	41.44998	1085.27686	747.0675	34.46421	1122.08289	396.16031	1688.42566	1008.52612	NaN	NaN	NaN	NaN	NaN	NaN	NaN	NaN	NaN	NaN	NaN	NaN	NaN	NaN	NaN	NaN	NaN	NaN	NaN	NaN	NaN
144	1.43	491.36411	1651.03552	930.07166	521.32623	1645.08997	1058.90295	362.58179	1593.90466	962.05823	394.10535	1593.58911	1088.552	376.64804	1437.57227	1008.88	356.22836	1106.71741	1008.80542	489.28989	1364.23975	1001.59265	534.77765	1192.20898	988.83887	312.89166	1261.96912	1083.7533	424.24014	1395.65649	843.93671	453.75198	1197.14612	768.22363	479.99353	1088.00159	752.95056	582.48932	979.52246	736.01776	697.61896	931.69366	785.91077	657.54224	886.96399	747.83514	742.36041	857.26984	749.11127	449.26547	1391.10974	1166.32703	389.48273	1199.50757	1253.30212	383.23221	1077.20166	1267.30884	381.7085	957.03149	1286.89734	420.7529	810.06598	1258.42334	366.97733	820.03961	1298.90515	391.09763	739.05103	1302.1626	531.46057	945.39954	898.00592	547.67468	969.14508	1115.38367	377.43884	972.59375	932.9162	390.95755	987.55518	1100.29932	436.92044	626.01892	855.34375	418.5206	462.3515	875.38617	225.37975	294.12067	888.04614	105.21829	172.79227	928.88416	72.31281	192.11801	977.13263	169.87352	40.94517	931.65479	548.82635	641.91541	1190.65784	577.31549	520.51996	1162.70825	578.68597	252.85905	1172.75012	591.56793	66.4891	1129.02429	554.73895	41.72913	1084.99756	747.7804	33.89124	1122.11121	406.28177	1689.9458	1009.5567	NaN	NaN	NaN	NaN	NaN	NaN	NaN	NaN	NaN	NaN	NaN	NaN	NaN	NaN	NaN	NaN	NaN	NaN	NaN	NaN	NaN
145	1.44	501.18634	1652.547	930.66998	531.69641	1646.44153	1059.33801	372.86697	1594.89246	963.50641	404.58319	1594.8468	1089.41992	387.24994	1438.4259	1009.91528	367.12302	1108.23083	1009.8775	499.93213	1365.76355	1002.09985	545.7168	1193.80225	989.56219	324.18924	1263.67371	1084.92188	434.40576	1397.35461	845.0213	463.01215	1198.63281	770.06158	488.06543	1089.27625	755.38953	588.48285	978.62219	737.79572	703.03809	928.51538	787.078	661.81226	884.78986	749.14612	746.12732	853.03992	750.26453	460.58905	1393.04797	1166.79578	403.22809	1201.04272	1254.48999	398.10162	1078.6521	1268.39075	398.22928	958.52466	1288.00574	438.75247	811.81702	1258.93811	385.371	821.42975	1300.17322	410.46048	740.5296	1302.93774	542.06262	946.78674	899.48706	558.1781	971.10815	1116.7926	387.99701	973.58411	933.70685	401.86673	989.14258	1100.92322	453.69388	625.23468	856.49353	439.79266	461.487	876.14276	244.33844	298.99142	889.57898	120.50203	181.75722	929.78479	89.39565	203.15718	978.32721	176.38577	45.67889	932.5918	556.99127	642.74884	1191.06433	584.06116	520.74872	1163.42554	581.8573	252.84624	1172.23315	592.59875	66.64526	1128.43555	555.0166	41.97732	1084.68701	748.26208	33.43291	1121.8905	416.44376	1691.2688	1010.58075	NaN	NaN	NaN	NaN	NaN	NaN	NaN	NaN	NaN	NaN	NaN	NaN	NaN	NaN	NaN	NaN	NaN	NaN	NaN	NaN	NaN
146	1.45	510.98196	1654.1084	931.15881	541.95892	1647.81641	1059.72058	382.52759	1596.68188	964.50897	415.10443	1596.08203	1090.26697	397.93182	1439.2666	1010.97839	377.58008	1109.81616	1010.80585	510.46878	1367.21387	1002.50208	556.44366	1195.2157	990.21637	335.36707	1265.35864	1086.03577	444.34125	1398.85144	845.91144	472.62726	1200.1416	771.49835	495.66339	1090.17249	757.75403	593.97357	977.4928	739.5498	708.11298	925.05212	788.11267	665.67859	882.31342	750.53528	749.3833	848.38068	751.37579	471.90723	1394.948	1167.22437	417.02023	1202.38647	1255.43018	412.94574	1080.07324	1269.56689	414.88141	959.96881	1289.11389	457.08182	813.73303	1259.36597	404.17963	822.77252	1301.30493	430.27139	742.07532	1303.50195	552.22668	948.09613	900.61346	568.66528	972.59619	1117.96326	398.16006	974.48132	934.59296	412.59961	990.54407	1101.71362	470.03372	624.73596	857.31091	461.43015	460.91641	877.15521	264.42981	303.63971	890.32776	137.39378	190.59596	930.63837	108.10374	214.00883	979.45837	184.48599	51.17249	933.41315	564.04413	643.08215	1191.33643	590.06207	520.83398	1164.47888	584.09637	252.87993	1171.81006	593.1485	66.88126	1127.94189	555.23462	42.16425	1084.41077	748.6955	33.08946	1121.67542	426.50159	1692.61072	1011.52838	NaN	NaN	NaN	NaN	NaN	NaN	NaN	NaN	NaN	NaN	NaN	NaN	NaN	NaN	NaN	NaN	NaN	NaN	NaN	NaN	NaN
